<svg width="522" height="697" viewBox="0 0 522 697" fill="none" xmlns="http://www.w3.org/2000/svg">
<rect x="62.1798" y="258.433" width="45.6641" height="45.6641" fill="#D9D9D9" stroke="black" stroke-width="0.35956"/>
<rect x="62.1798" y="304.457" width="45.6641" height="45.6641" fill="#D9D9D9" stroke="black" stroke-width="0.35956"/>
<rect x="62.1798" y="350.48" width="45.6641" height="45.6641" fill="#D9D9D9" stroke="black" stroke-width="0.35956"/>
<rect x="62.1798" y="396.504" width="45.6641" height="45.6641" fill="#D9D9D9" stroke="black" stroke-width="0.35956"/>
<rect x="108.203" y="258.433" width="45.6641" height="45.6641" fill="#D9D9D9" stroke="black" stroke-width="0.35956"/>
<rect x="108.203" y="304.457" width="45.6641" height="45.6641" fill="#D9D9D9" stroke="black" stroke-width="0.35956"/>
<rect x="108.203" y="350.48" width="45.6641" height="45.6641" fill="#D9D9D9" stroke="black" stroke-width="0.35956"/>
<rect x="108.203" y="396.504" width="45.6641" height="45.6641" fill="#D9D9D9" stroke="black" stroke-width="0.35956"/>
<rect x="154.227" y="258.433" width="45.6641" height="45.6641" fill="#D9D9D9" stroke="black" stroke-width="0.35956"/>
<rect x="85.3481" y="123.18" width="45.6641" height="45.6641" fill="#D9D9D9" stroke="black" stroke-width="0.35956"/>
<rect x="367.981" y="303.974" width="45.6641" height="45.6641" fill="#D9D9D9" stroke="black" stroke-width="0.35956"/>
<rect x="175.517" y="123.18" width="45.6641" height="45.6641" fill="#D9D9D9" stroke="black" stroke-width="0.35956"/>
<rect x="414.005" y="303.974" width="45.6641" height="45.6641" fill="#D9D9D9" stroke="black" stroke-width="0.35956"/>
<rect x="221.181" y="574.29" width="45.6641" height="45.6641" transform="rotate(-180 221.181 574.29)" fill="#D9D9D9" stroke="black" stroke-width="0.35956"/>
<rect x="459.669" y="395.662" width="45.6641" height="45.6641" transform="rotate(-180 459.669 395.662)" fill="#D9D9D9" stroke="black" stroke-width="0.35956"/>
<rect x="131.012" y="574.29" width="45.6641" height="45.6641" transform="rotate(-180 131.012 574.29)" fill="#D9D9D9" stroke="black" stroke-width="0.35956"/>
<rect x="413.645" y="395.662" width="45.6641" height="45.6641" transform="rotate(-180 413.645 395.662)" fill="#D9D9D9" stroke="black" stroke-width="0.35956"/>
<path d="M101.641 151.44V149.643L109.571 137.097H110.875V139.881H109.994L104.003 149.361V149.502H114.681V151.44H101.641ZM110.134 155.14V150.894V150.057V137.097H112.214V155.14H110.134Z" fill="black"/>
<path d="M384.274 332.235V330.437L392.204 317.892H393.507V320.676H392.626L386.635 330.155V330.296H397.313V332.235H384.274ZM392.767 335.935V331.688V330.851V317.892H394.847V335.935H392.767Z" fill="black"/>
<path d="M198.224 155.387C197.484 155.375 196.744 155.234 196.004 154.964C195.264 154.694 194.588 154.239 193.978 153.598C193.367 152.952 192.876 152.08 192.506 150.982C192.136 149.878 191.951 148.491 191.951 146.823C191.951 145.226 192.101 143.81 192.4 142.577C192.7 141.338 193.135 140.295 193.704 139.449C194.274 138.598 194.961 137.951 195.766 137.511C196.577 137.07 197.49 136.85 198.506 136.85C199.516 136.85 200.415 137.053 201.202 137.458C201.995 137.858 202.641 138.415 203.14 139.132C203.639 139.849 203.962 140.674 204.109 141.608H201.96C201.76 140.797 201.372 140.125 200.797 139.59C200.221 139.056 199.457 138.788 198.506 138.788C197.108 138.788 196.007 139.396 195.202 140.612C194.403 141.828 194.001 143.534 193.995 145.731H194.136C194.465 145.232 194.856 144.806 195.308 144.453C195.766 144.095 196.271 143.819 196.823 143.625C197.375 143.431 197.96 143.335 198.576 143.335C199.61 143.335 200.556 143.593 201.413 144.11C202.271 144.621 202.958 145.329 203.475 146.233C203.992 147.132 204.25 148.163 204.25 149.326C204.25 150.441 204.001 151.463 203.501 152.391C203.002 153.314 202.3 154.048 201.396 154.594C200.497 155.134 199.44 155.399 198.224 155.387ZM198.224 153.449C198.964 153.449 199.628 153.264 200.215 152.894C200.808 152.524 201.275 152.027 201.616 151.405C201.963 150.782 202.136 150.089 202.136 149.326C202.136 148.58 201.968 147.901 201.634 147.29C201.305 146.674 200.85 146.183 200.268 145.819C199.692 145.455 199.035 145.273 198.295 145.273C197.737 145.273 197.217 145.384 196.735 145.608C196.254 145.825 195.831 146.124 195.466 146.506C195.108 146.888 194.826 147.326 194.621 147.819C194.415 148.306 194.312 148.82 194.312 149.361C194.312 150.077 194.48 150.747 194.814 151.369C195.155 151.992 195.619 152.494 196.207 152.876C196.8 153.258 197.472 153.449 198.224 153.449Z" fill="black"/>
<path d="M437.178 336.182C436.438 336.17 435.698 336.029 434.958 335.759C434.218 335.489 433.543 335.033 432.932 334.393C432.321 333.747 431.83 332.875 431.46 331.777C431.09 330.672 430.905 329.286 430.905 327.618C430.905 326.02 431.055 324.605 431.355 323.372C431.654 322.132 432.089 321.09 432.659 320.244C433.228 319.392 433.916 318.746 434.72 318.306C435.531 317.865 436.444 317.645 437.46 317.645C438.47 317.645 439.369 317.848 440.156 318.253C440.949 318.652 441.595 319.21 442.094 319.927C442.594 320.643 442.917 321.469 443.064 322.402H440.914C440.714 321.592 440.327 320.919 439.751 320.385C439.175 319.85 438.412 319.583 437.46 319.583C436.062 319.583 434.961 320.191 434.156 321.407C433.358 322.623 432.955 324.329 432.949 326.526H433.09C433.419 326.026 433.81 325.601 434.262 325.248C434.72 324.89 435.225 324.614 435.777 324.42C436.33 324.226 436.914 324.129 437.531 324.129C438.564 324.129 439.51 324.388 440.368 324.905C441.225 325.416 441.912 326.123 442.429 327.028C442.946 327.926 443.205 328.957 443.205 330.12C443.205 331.236 442.955 332.258 442.456 333.186C441.956 334.108 441.255 334.842 440.35 335.389C439.451 335.929 438.394 336.193 437.178 336.182ZM437.178 334.243C437.918 334.243 438.582 334.058 439.169 333.688C439.763 333.318 440.23 332.822 440.57 332.199C440.917 331.577 441.09 330.884 441.09 330.12C441.09 329.374 440.923 328.696 440.588 328.085C440.259 327.468 439.804 326.978 439.222 326.614C438.647 326.25 437.989 326.067 437.249 326.067C436.691 326.067 436.171 326.179 435.689 326.402C435.208 326.62 434.785 326.919 434.421 327.301C434.062 327.683 433.78 328.12 433.575 328.614C433.369 329.101 433.267 329.615 433.267 330.155C433.267 330.872 433.434 331.542 433.769 332.164C434.109 332.787 434.573 333.289 435.161 333.671C435.754 334.052 436.427 334.243 437.178 334.243Z" fill="black"/>
<path d="M202.647 542.23L202.647 560.274L200.462 560.274L200.462 544.521L200.356 544.521L195.951 547.446L195.951 545.226L200.462 542.23L202.647 542.23Z" fill="black"/>
<path d="M441.601 363.035L441.601 381.079L439.416 381.079L439.416 365.326L439.31 365.326L434.905 368.251L434.905 366.031L439.416 363.035L441.601 363.035Z" fill="black"/>
<path d="M108.157 560.52C106.947 560.52 105.878 560.306 104.95 559.877C104.028 559.443 103.308 558.846 102.791 558.089C102.275 557.325 102.019 556.456 102.025 555.481C102.019 554.717 102.169 554.013 102.474 553.366C102.78 552.714 103.197 552.171 103.725 551.737C104.26 551.296 104.856 551.017 105.514 550.9L105.514 550.794C104.65 550.571 103.963 550.086 103.452 549.34C102.941 548.588 102.689 547.734 102.695 546.776C102.689 545.86 102.921 545.041 103.391 544.318C103.86 543.596 104.507 543.026 105.329 542.609C106.157 542.192 107.1 541.984 108.157 541.984C109.202 541.984 110.136 542.192 110.959 542.609C111.781 543.026 112.427 543.596 112.897 544.318C113.373 545.041 113.613 545.86 113.619 546.776C113.613 547.734 113.352 548.588 112.835 549.34C112.324 550.086 111.646 550.571 110.8 550.794L110.8 550.9C111.452 551.017 112.039 551.296 112.562 551.737C113.085 552.171 113.502 552.714 113.813 553.366C114.124 554.013 114.283 554.717 114.289 555.481C114.283 556.456 114.019 557.325 113.496 558.089C112.979 558.846 112.26 559.443 111.337 559.877C110.421 560.306 109.361 560.52 108.157 560.52ZM108.157 558.582C108.973 558.582 109.678 558.45 110.271 558.186C110.865 557.921 111.323 557.548 111.646 557.067C111.969 556.585 112.133 556.021 112.139 555.375C112.133 554.694 111.957 554.092 111.611 553.569C111.264 553.046 110.791 552.635 110.192 552.336C109.599 552.036 108.92 551.886 108.157 551.886C107.387 551.886 106.7 552.036 106.095 552.336C105.496 552.635 105.023 553.046 104.677 553.569C104.336 554.092 104.169 554.694 104.175 555.375C104.169 556.021 104.324 556.585 104.642 557.067C104.965 557.548 105.426 557.921 106.025 558.186C106.624 558.45 107.335 558.582 108.157 558.582ZM108.157 550.019C108.803 550.019 109.376 549.889 109.875 549.631C110.38 549.372 110.776 549.011 111.064 548.547C111.352 548.083 111.499 547.54 111.505 546.917C111.499 546.307 111.355 545.775 111.073 545.323C110.791 544.865 110.401 544.512 109.901 544.265C109.402 544.013 108.821 543.887 108.157 543.887C107.481 543.887 106.891 544.013 106.386 544.265C105.881 544.512 105.49 544.865 105.214 545.323C104.938 545.775 104.803 546.307 104.809 546.917C104.803 547.54 104.941 548.083 105.223 548.547C105.511 549.011 105.907 549.372 106.412 549.631C106.918 549.889 107.499 550.019 108.157 550.019Z" fill="black"/>
<path d="M390.79 381.325C389.58 381.325 388.511 381.111 387.583 380.682C386.661 380.248 385.941 379.651 385.424 378.894C384.908 378.13 384.652 377.261 384.658 376.286C384.652 375.522 384.802 374.818 385.107 374.172C385.413 373.52 385.83 372.976 386.358 372.542C386.893 372.101 387.489 371.822 388.147 371.705L388.147 371.599C387.283 371.376 386.596 370.891 386.085 370.145C385.574 369.393 385.322 368.539 385.328 367.581C385.322 366.665 385.554 365.846 386.024 365.123C386.493 364.401 387.139 363.831 387.962 363.414C388.79 362.997 389.733 362.789 390.79 362.789C391.835 362.789 392.769 362.997 393.592 363.414C394.414 363.831 395.06 364.401 395.53 365.123C396.006 365.846 396.246 366.665 396.252 367.581C396.246 368.539 395.985 369.393 395.468 370.145C394.957 370.891 394.279 371.376 393.433 371.599L393.433 371.705C394.085 371.822 394.672 372.101 395.195 372.542C395.718 372.976 396.135 373.52 396.446 374.172C396.757 374.818 396.916 375.522 396.922 376.286C396.916 377.261 396.652 378.13 396.129 378.894C395.612 379.651 394.893 380.248 393.97 380.682C393.054 381.111 391.994 381.325 390.79 381.325ZM390.79 379.387C391.606 379.387 392.311 379.255 392.904 378.991C393.498 378.726 393.956 378.353 394.279 377.872C394.602 377.39 394.766 376.826 394.772 376.18C394.766 375.499 394.59 374.897 394.243 374.374C393.897 373.851 393.424 373.44 392.825 373.141C392.232 372.841 391.553 372.691 390.79 372.691C390.02 372.691 389.333 372.841 388.728 373.141C388.129 373.44 387.656 373.851 387.31 374.374C386.969 374.897 386.802 375.499 386.808 376.18C386.802 376.826 386.957 377.39 387.275 377.872C387.598 378.353 388.059 378.726 388.658 378.991C389.257 379.255 389.968 379.387 390.79 379.387ZM390.79 370.824C391.436 370.824 392.009 370.694 392.508 370.436C393.013 370.178 393.409 369.816 393.697 369.352C393.985 368.888 394.132 368.345 394.138 367.722C394.132 367.112 393.988 366.58 393.706 366.128C393.424 365.67 393.034 365.317 392.534 365.071C392.035 364.818 391.454 364.692 390.79 364.692C390.114 364.692 389.524 364.818 389.019 365.071C388.514 365.317 388.123 365.67 387.847 366.128C387.571 366.58 387.436 367.112 387.442 367.722C387.436 368.345 387.574 368.888 387.856 369.352C388.144 369.816 388.54 370.178 389.045 370.436C389.551 370.694 390.132 370.824 390.79 370.824Z" fill="black"/>
<rect x="154.227" y="304.457" width="45.6641" height="45.6641" fill="#D9D9D9" stroke="black" stroke-width="0.35956"/>
<rect x="154.227" y="350.48" width="45.6641" height="45.6641" fill="#D9D9D9" stroke="black" stroke-width="0.35956"/>
<rect x="154.227" y="396.504" width="45.6641" height="45.6641" fill="#D9D9D9" stroke="black" stroke-width="0.35956"/>
<rect x="200.251" y="258.433" width="45.6641" height="45.6641" fill="#D9D9D9" stroke="black" stroke-width="0.35956"/>
<rect x="200.251" y="304.457" width="45.6641" height="45.6641" fill="#D9D9D9" stroke="black" stroke-width="0.35956"/>
<rect x="200.251" y="350.48" width="45.6641" height="45.6641" fill="#D9D9D9" stroke="black" stroke-width="0.35956"/>
<rect x="200.251" y="396.504" width="45.6641" height="45.6641" fill="#D9D9D9" stroke="black" stroke-width="0.35956"/>
<path d="M85.066 290.41C83.903 290.41 82.8663 290.211 81.9559 289.811C81.0514 289.412 80.3319 288.857 79.7974 288.146C79.2688 287.429 78.981 286.598 78.934 285.653H81.1542C81.2012 286.234 81.4009 286.736 81.7533 287.159C82.1057 287.576 82.5668 287.899 83.1365 288.128C83.7062 288.357 84.3376 288.472 85.0307 288.472C85.806 288.472 86.4932 288.337 87.0923 288.067C87.6914 287.797 88.1613 287.421 88.502 286.939C88.8426 286.457 89.0129 285.899 89.0129 285.265C89.0129 284.601 88.8485 284.017 88.5196 283.512C88.1907 283.001 87.709 282.601 87.0747 282.314C86.4404 282.026 85.6651 281.882 84.7488 281.882H83.3039V279.944H84.7488C85.4654 279.944 86.0938 279.814 86.6342 279.556C87.1804 279.298 87.6062 278.933 87.9117 278.464C88.223 277.994 88.3786 277.442 88.3786 276.807C88.3786 276.196 88.2435 275.665 87.9733 275.213C87.7032 274.76 87.3214 274.408 86.828 274.155C86.3405 273.903 85.7649 273.777 85.1012 273.777C84.4786 273.777 83.8913 273.891 83.3392 274.12C82.7929 274.343 82.3465 274.669 82 275.098C81.6535 275.521 81.4655 276.032 81.4361 276.631H79.3217C79.3569 275.685 79.6418 274.857 80.1763 274.147C80.7108 273.43 81.4097 272.872 82.2731 272.473C83.1424 272.073 84.0968 271.874 85.1364 271.874C86.2524 271.874 87.2098 272.1 88.0086 272.552C88.8074 272.998 89.4212 273.589 89.8499 274.323C90.2787 275.057 90.4931 275.85 90.4931 276.702C90.4931 277.718 90.2258 278.584 89.6913 279.301C89.1627 280.017 88.4432 280.513 87.5328 280.789V280.93C88.6723 281.118 89.5621 281.603 90.2023 282.384C90.8425 283.159 91.1626 284.12 91.1626 285.265C91.1626 286.246 90.8954 287.127 90.3609 287.908C89.8323 288.683 89.1099 289.294 88.1936 289.741C87.2773 290.187 86.2348 290.41 85.066 290.41Z" fill="black"/>
<path d="M84.8545 336.434C83.5271 336.434 82.3965 336.073 81.4626 335.35C80.5287 334.622 79.8151 333.568 79.3217 332.187C78.8283 330.801 78.5816 329.127 78.5816 327.166C78.5816 325.216 78.8283 323.55 79.3217 322.17C79.8209 320.784 80.5375 319.727 81.4714 318.998C82.4111 318.264 83.5388 317.897 84.8545 317.897C86.1702 317.897 87.2949 318.264 88.2288 318.998C89.1686 319.727 89.8852 320.784 90.3785 322.17C90.8778 323.55 91.1274 325.216 91.1274 327.166C91.1274 329.127 90.8807 330.801 90.3873 332.187C89.894 333.568 89.1803 334.622 88.2465 335.35C87.3126 336.073 86.1819 336.434 84.8545 336.434ZM84.8545 334.496C86.1702 334.496 87.1922 333.861 87.9205 332.593C88.6488 331.324 89.0129 329.515 89.0129 327.166C89.0129 325.603 88.8455 324.273 88.5108 323.175C88.1818 322.076 87.7061 321.239 87.0835 320.664C86.4668 320.088 85.7238 319.8 84.8545 319.8C83.5506 319.8 82.5315 320.443 81.7974 321.73C81.0632 323.01 80.6961 324.822 80.6961 327.166C80.6961 328.728 80.8605 330.055 81.1895 331.148C81.5184 332.24 81.9912 333.071 82.6079 333.641C83.2305 334.211 83.9794 334.496 84.8545 334.496Z" fill="black"/>
<path d="M78.9693 382.211V380.625L84.925 374.105C85.6239 373.342 86.1995 372.678 86.6518 372.114C87.1041 371.545 87.4388 371.01 87.6562 370.511C87.8794 370.006 87.991 369.477 87.991 368.925C87.991 368.291 87.8382 367.741 87.5328 367.277C87.2333 366.813 86.8221 366.455 86.2994 366.203C85.7766 365.95 85.1893 365.824 84.5373 365.824C83.8443 365.824 83.2393 365.968 82.7224 366.255C82.2114 366.537 81.815 366.934 81.5331 367.445C81.257 367.956 81.119 368.555 81.119 369.242H79.0398C79.0398 368.185 79.2835 367.257 79.771 366.458C80.2585 365.659 80.9222 365.037 81.7621 364.59C82.6079 364.144 83.5565 363.921 84.6078 363.921C85.6651 363.921 86.6019 364.144 87.4183 364.59C88.2347 365.037 88.8749 365.639 89.3389 366.396C89.8029 367.154 90.0349 367.997 90.0349 368.925C90.0349 369.589 89.9145 370.238 89.6737 370.872C89.4388 371.501 89.0276 372.202 88.4403 372.978C87.8588 373.747 87.0512 374.687 86.0175 375.797L81.9648 380.132V380.273H90.3521V382.211H78.9693Z" fill="black"/>
<path d="M79.5331 428.234L87.6033 412.27V412.129H78.2997V410.191H89.8587V412.235L81.8238 428.234H79.5331Z" fill="black"/>
<path d="M124.57 286.463V284.666L132.499 272.12H133.803V274.904H132.922L126.931 284.384V284.525H137.609V286.463H124.57ZM133.063 290.164V285.917V285.08V272.12H135.142V290.164H133.063Z" fill="black"/>
<path d="M131.336 318.144V336.187H129.151V320.435H129.046L124.641 323.36V321.139L129.151 318.144H131.336Z" fill="black"/>
<path d="M130.878 382.458C129.551 382.458 128.42 382.096 127.486 381.374C126.552 380.646 125.839 379.591 125.345 378.211C124.852 376.825 124.605 375.151 124.605 373.189C124.605 371.239 124.852 369.574 125.345 368.194C125.845 366.808 126.561 365.75 127.495 365.022C128.435 364.288 129.563 363.921 130.878 363.921C132.194 363.921 133.319 364.288 134.252 365.022C135.192 365.75 135.909 366.808 136.402 368.194C136.901 369.574 137.151 371.239 137.151 373.189C137.151 375.151 136.904 376.825 136.411 378.211C135.918 379.591 135.204 380.646 134.27 381.374C133.336 382.096 132.206 382.458 130.878 382.458ZM130.878 380.519C132.194 380.519 133.216 379.885 133.944 378.616C134.672 377.348 135.037 375.539 135.037 373.189C135.037 371.627 134.869 370.296 134.534 369.198C134.205 368.1 133.73 367.263 133.107 366.687C132.49 366.112 131.747 365.824 130.878 365.824C129.574 365.824 128.555 366.467 127.821 367.753C127.087 369.034 126.72 370.846 126.72 373.189C126.72 374.751 126.884 376.079 127.213 377.171C127.542 378.264 128.015 379.095 128.632 379.665C129.254 380.234 130.003 380.519 130.878 380.519Z" fill="black"/>
<path d="M130.772 428.481C129.563 428.481 128.494 428.267 127.566 427.838C126.643 427.403 125.924 426.807 125.407 426.05C124.89 425.286 124.635 424.417 124.641 423.442C124.635 422.678 124.784 421.973 125.09 421.327C125.395 420.675 125.812 420.132 126.341 419.697C126.875 419.257 127.472 418.978 128.129 418.86V418.755C127.266 418.531 126.579 418.047 126.068 417.301C125.557 416.549 125.304 415.695 125.31 414.737C125.304 413.821 125.536 413.002 126.006 412.279C126.476 411.557 127.122 410.987 127.944 410.57C128.773 410.153 129.715 409.944 130.772 409.944C131.818 409.944 132.752 410.153 133.574 410.57C134.396 410.987 135.042 411.557 135.512 412.279C135.988 413.002 136.229 413.821 136.235 414.737C136.229 415.695 135.968 416.549 135.451 417.301C134.94 418.047 134.261 418.531 133.416 418.755V418.86C134.067 418.978 134.655 419.257 135.178 419.697C135.7 420.132 136.117 420.675 136.429 421.327C136.74 421.973 136.898 422.678 136.904 423.442C136.898 424.417 136.634 425.286 136.111 426.05C135.595 426.807 134.875 427.403 133.953 427.838C133.037 428.267 131.977 428.481 130.772 428.481ZM130.772 426.543C131.589 426.543 132.294 426.411 132.887 426.146C133.48 425.882 133.938 425.509 134.261 425.028C134.584 424.546 134.749 423.982 134.755 423.336C134.749 422.655 134.573 422.053 134.226 421.53C133.88 421.007 133.407 420.596 132.808 420.296C132.214 419.997 131.536 419.847 130.772 419.847C130.003 419.847 129.316 419.997 128.711 420.296C128.112 420.596 127.639 421.007 127.292 421.53C126.952 422.053 126.784 422.655 126.79 423.336C126.784 423.982 126.94 424.546 127.257 425.028C127.58 425.509 128.041 425.882 128.64 426.146C129.239 426.411 129.95 426.543 130.772 426.543ZM130.772 417.979C131.419 417.979 131.991 417.85 132.49 417.592C132.996 417.333 133.392 416.972 133.68 416.508C133.968 416.044 134.114 415.501 134.12 414.878C134.114 414.267 133.971 413.736 133.689 413.284C133.407 412.825 133.016 412.473 132.517 412.226C132.018 411.974 131.436 411.847 130.772 411.847C130.097 411.847 129.507 411.974 129.002 412.226C128.496 412.473 128.106 412.825 127.83 413.284C127.554 413.736 127.419 414.267 127.425 414.878C127.419 415.501 127.557 416.044 127.839 416.508C128.126 416.972 128.523 417.333 129.028 417.592C129.533 417.85 130.115 417.979 130.772 417.979Z" fill="black"/>
<path d="M171.017 290.164V288.578L176.972 282.058C177.671 281.295 178.247 280.631 178.699 280.067C179.151 279.497 179.486 278.963 179.704 278.464C179.927 277.958 180.038 277.43 180.038 276.878C180.038 276.243 179.886 275.694 179.58 275.23C179.281 274.766 178.869 274.408 178.347 274.155C177.824 273.903 177.237 273.777 176.585 273.777C175.892 273.777 175.287 273.92 174.77 274.208C174.259 274.49 173.862 274.887 173.58 275.398C173.304 275.909 173.166 276.508 173.166 277.195H171.087C171.087 276.138 171.331 275.21 171.818 274.411C172.306 273.612 172.97 272.989 173.809 272.543C174.655 272.097 175.604 271.874 176.655 271.874C177.712 271.874 178.649 272.097 179.466 272.543C180.282 272.989 180.922 273.592 181.386 274.349C181.85 275.107 182.082 275.95 182.082 276.878C182.082 277.541 181.962 278.19 181.721 278.825C181.486 279.453 181.075 280.155 180.488 280.93C179.906 281.7 179.099 282.64 178.065 283.75L174.012 288.084V288.225H182.399V290.164H171.017Z" fill="black"/>
<path d="M176.902 336.434C175.574 336.434 174.444 336.073 173.51 335.35C172.576 334.622 171.862 333.568 171.369 332.187C170.876 330.801 170.629 329.127 170.629 327.166C170.629 325.216 170.876 323.55 171.369 322.17C171.868 320.784 172.585 319.727 173.519 318.998C174.458 318.264 175.586 317.897 176.902 317.897C178.218 317.897 179.342 318.264 180.276 318.998C181.216 319.727 181.932 320.784 182.426 322.17C182.925 323.55 183.175 325.216 183.175 327.166C183.175 329.127 182.928 330.801 182.435 332.187C181.941 333.568 181.228 334.622 180.294 335.35C179.36 336.073 178.229 336.434 176.902 336.434ZM176.902 334.496C178.218 334.496 179.239 333.861 179.968 332.593C180.696 331.324 181.06 329.515 181.06 327.166C181.06 325.603 180.893 324.273 180.558 323.175C180.229 322.076 179.753 321.239 179.131 320.664C178.514 320.088 177.771 319.8 176.902 319.8C175.598 319.8 174.579 320.443 173.845 321.73C173.111 323.01 172.743 324.822 172.743 327.166C172.743 328.728 172.908 330.055 173.237 331.148C173.566 332.24 174.039 333.071 174.655 333.641C175.278 334.211 176.027 334.496 176.902 334.496Z" fill="black"/>
<path d="M177.36 364.167V382.211H175.175V366.458H175.069L170.664 369.383V367.163L175.175 364.167H177.36Z" fill="black"/>
<path d="M176.902 428.481C175.574 428.481 174.444 428.12 173.51 427.398C172.576 426.669 171.862 425.615 171.369 424.235C170.876 422.849 170.629 421.175 170.629 419.213C170.629 417.263 170.876 415.598 171.369 414.217C171.868 412.831 172.585 411.774 173.519 411.046C174.458 410.312 175.586 409.944 176.902 409.944C178.218 409.944 179.342 410.312 180.276 411.046C181.216 411.774 181.932 412.831 182.426 414.217C182.925 415.598 183.175 417.263 183.175 419.213C183.175 421.175 182.928 422.849 182.435 424.235C181.941 425.615 181.228 426.669 180.294 427.398C179.36 428.12 178.229 428.481 176.902 428.481ZM176.902 426.543C178.218 426.543 179.239 425.909 179.968 424.64C180.696 423.371 181.06 421.562 181.06 419.213C181.06 417.65 180.893 416.32 180.558 415.222C180.229 414.123 179.753 413.286 179.131 412.711C178.514 412.135 177.771 411.847 176.902 411.847C175.598 411.847 174.579 412.491 173.845 413.777C173.111 415.057 172.743 416.869 172.743 419.213C172.743 420.775 172.908 422.103 173.237 423.195C173.566 424.288 174.039 425.119 174.655 425.688C175.278 426.258 176.027 426.543 176.902 426.543Z" fill="black"/>
<path d="M222.679 290.41C221.645 290.41 220.714 290.205 219.886 289.794C219.058 289.382 218.394 288.819 217.895 288.102C217.396 287.385 217.122 286.569 217.075 285.653H219.19C219.272 286.469 219.642 287.145 220.3 287.679C220.964 288.208 221.757 288.472 222.679 288.472C223.419 288.472 224.077 288.299 224.652 287.952C225.234 287.606 225.689 287.13 226.018 286.525C226.353 285.914 226.52 285.224 226.52 284.455C226.52 283.667 226.347 282.966 226 282.349C225.66 281.726 225.19 281.236 224.591 280.878C223.992 280.519 223.307 280.337 222.538 280.331C221.986 280.325 221.419 280.411 220.837 280.587C220.256 280.757 219.777 280.977 219.401 281.248L217.357 281.001L218.45 272.12H227.824V274.058H220.282L219.648 279.38H219.754C220.124 279.086 220.588 278.842 221.146 278.649C221.704 278.455 222.285 278.358 222.89 278.358C223.994 278.358 224.978 278.622 225.842 279.151C226.711 279.674 227.392 280.39 227.886 281.3C228.385 282.211 228.635 283.25 228.635 284.419C228.635 285.571 228.376 286.598 227.859 287.503C227.348 288.402 226.643 289.112 225.745 289.635C224.846 290.152 223.824 290.41 222.679 290.41Z" fill="black"/>
<path d="M223.031 336.434C222.291 336.422 221.551 336.281 220.811 336.011C220.071 335.741 219.396 335.286 218.785 334.645C218.174 333.999 217.683 333.127 217.313 332.029C216.943 330.925 216.758 329.538 216.758 327.87C216.758 326.273 216.908 324.857 217.208 323.624C217.507 322.385 217.942 321.342 218.512 320.496C219.081 319.645 219.768 318.998 220.573 318.558C221.384 318.117 222.297 317.897 223.313 317.897C224.323 317.897 225.222 318.1 226.009 318.505C226.802 318.905 227.448 319.462 227.947 320.179C228.447 320.896 228.77 321.721 228.916 322.655H226.767C226.567 321.844 226.179 321.172 225.604 320.637C225.028 320.103 224.265 319.835 223.313 319.835C221.915 319.835 220.814 320.443 220.009 321.659C219.211 322.875 218.808 324.581 218.802 326.778H218.943C219.272 326.279 219.663 325.853 220.115 325.5C220.573 325.142 221.078 324.866 221.63 324.672C222.182 324.478 222.767 324.382 223.384 324.382C224.417 324.382 225.363 324.64 226.221 325.157C227.078 325.668 227.765 326.376 228.282 327.28C228.799 328.179 229.057 329.21 229.057 330.372C229.057 331.488 228.808 332.51 228.309 333.438C227.809 334.361 227.107 335.095 226.203 335.641C225.304 336.181 224.247 336.446 223.031 336.434ZM223.031 334.496C223.771 334.496 224.435 334.311 225.022 333.941C225.616 333.571 226.082 333.074 226.423 332.452C226.77 331.829 226.943 331.136 226.943 330.372C226.943 329.627 226.776 328.948 226.441 328.337C226.112 327.721 225.657 327.23 225.075 326.866C224.5 326.502 223.842 326.32 223.102 326.32C222.544 326.32 222.024 326.431 221.542 326.655C221.061 326.872 220.638 327.171 220.274 327.553C219.915 327.935 219.633 328.373 219.428 328.866C219.222 329.353 219.119 329.867 219.119 330.408C219.119 331.124 219.287 331.794 219.622 332.416C219.962 333.039 220.426 333.541 221.014 333.923C221.607 334.305 222.279 334.496 223.031 334.496Z" fill="black"/>
<path d="M223.384 364.167V382.211H221.199V366.458H221.093L216.688 369.383V367.163L221.199 364.167H223.384Z" fill="black"/>
<path d="M223.384 410.191V428.234H221.199V412.482H221.093L216.688 415.407V413.187L221.199 410.191H223.384Z" fill="black"/>
<rect opacity="0.5" x="62.1798" y="258.433" width="45.6641" height="45.6641" fill="#7383AA" stroke="black" stroke-width="0.35956"/>
<rect opacity="0.5" x="62.1798" y="304.457" width="45.6641" height="45.6641" fill="#7383AA" stroke="black" stroke-width="0.35956"/>
<rect opacity="0.5" x="108.203" y="258.433" width="45.6641" height="45.6641" fill="#7383AA" stroke="black" stroke-width="0.35956"/>
<rect opacity="0.5" x="108.203" y="304.457" width="45.6641" height="45.6641" fill="#7383AA" stroke="black" stroke-width="0.35956"/>
<rect opacity="0.5" x="154.227" y="258.433" width="45.6641" height="45.6641" fill="#8BAA73" stroke="black" stroke-width="0.35956"/>
<rect opacity="0.5" x="154.227" y="304.457" width="45.6641" height="45.6641" fill="#8BAA73" stroke="black" stroke-width="0.35956"/>
<rect opacity="0.5" x="200.251" y="258.433" width="45.6641" height="45.6641" fill="#8BAA73" stroke="black" stroke-width="0.35956"/>
<rect opacity="0.5" x="200.251" y="304.457" width="45.6641" height="45.6641" fill="#8BAA73" stroke="black" stroke-width="0.35956"/>
<rect opacity="0.5" x="62.1798" y="350.48" width="45.6641" height="45.6641" fill="#AA738E" stroke="black" stroke-width="0.35956"/>
<rect opacity="0.5" x="62.1798" y="396.504" width="45.6641" height="45.6641" fill="#AA738E" stroke="black" stroke-width="0.35956"/>
<rect opacity="0.5" x="108.203" y="350.48" width="45.6641" height="45.6641" fill="#AA738E" stroke="black" stroke-width="0.35956"/>
<rect opacity="0.5" x="108.203" y="396.504" width="45.6641" height="45.6641" fill="#AA738E" stroke="black" stroke-width="0.35956"/>
<rect opacity="0.5" x="154.227" y="350.48" width="45.6641" height="45.6641" fill="#5E2A2A" stroke="black" stroke-width="0.35956"/>
<rect opacity="0.5" x="154.227" y="396.504" width="45.6641" height="45.6641" fill="#5E2A2A" stroke="black" stroke-width="0.35956"/>
<rect opacity="0.5" x="200.251" y="350.48" width="45.6641" height="45.6641" fill="#5E2A2A" stroke="black" stroke-width="0.35956"/>
<rect opacity="0.5" x="200.251" y="396.504" width="45.6641" height="45.6641" fill="#5E2A2A" stroke="black" stroke-width="0.35956"/>
<path d="M109.001 176.813C108.634 176.446 108.039 176.446 107.673 176.813L101.695 182.79C101.328 183.157 101.328 183.752 101.695 184.119C102.062 184.485 102.657 184.485 103.024 184.119L108.337 178.805L113.65 184.119C114.017 184.485 114.612 184.485 114.978 184.119C115.345 183.752 115.345 183.157 114.978 182.79L109.001 176.813ZM109.276 246.356L109.276 177.477L107.398 177.477L107.398 246.356L109.276 246.356Z" fill="black"/>
<path d="M199.17 176.813C198.803 176.446 198.208 176.446 197.841 176.813L191.864 182.79C191.497 183.157 191.497 183.752 191.864 184.119C192.231 184.485 192.826 184.485 193.192 184.119L198.506 178.805L203.819 184.119C204.186 184.485 204.78 184.485 205.147 184.119C205.514 183.752 205.514 183.157 205.147 182.79L199.17 176.813ZM199.445 246.356L199.445 177.477L197.566 177.477L197.566 246.356L199.445 246.356Z" fill="black"/>
<path d="M197.528 520.657C197.895 521.024 198.49 521.024 198.857 520.657L204.834 514.68C205.201 514.313 205.201 513.718 204.834 513.352C204.467 512.985 203.873 512.985 203.506 513.352L198.192 518.665L192.879 513.352C192.512 512.985 191.918 512.985 191.551 513.352C191.184 513.718 191.184 514.313 191.551 514.68L197.528 520.657ZM197.253 451.114L197.253 519.993L199.132 519.993L199.132 451.114L197.253 451.114Z" fill="black"/>
<path d="M107.36 520.657C107.726 521.024 108.321 521.024 108.688 520.657L114.665 514.68C115.032 514.313 115.032 513.718 114.665 513.352C114.298 512.985 113.704 512.985 113.337 513.352L108.024 518.665L102.71 513.352C102.344 512.985 101.749 512.985 101.382 513.352C101.015 513.718 101.015 514.313 101.382 514.68L107.36 520.657ZM107.084 451.114L107.084 519.993L108.963 519.993L108.963 451.114L107.084 451.114Z" fill="black"/>
<path d="M336.203 350.713C337.01 349.906 337.01 348.598 336.203 347.791L323.053 334.641C322.246 333.834 320.938 333.834 320.131 334.641C319.324 335.448 319.324 336.756 320.131 337.563L331.82 349.252L320.131 360.94C319.324 361.747 319.324 363.055 320.131 363.862C320.938 364.669 322.246 364.669 323.053 363.862L336.203 350.713ZM263.457 351.318H334.742V347.185H263.457V351.318Z" fill="black"/>
</svg>
